<svg width="28" height="28" viewBox="0 0 28 28" fill="none" xmlns="http://www.w3.org/2000/svg">
<path d="M5.64373 14.8094C5.0304 14.0871 4.61909 13.2154 4.45155 12.2828C4.22935 11.0212 4.47605 9.72197 5.1452 8.62967C5.81435 7.53736 6.85977 6.72738 8.08459 6.35227C9.30942 5.97716 10.6291 6.0628 11.7952 6.59306C12.9613 7.12332 13.8932 8.06161 14.4156 9.23124" stroke="#ECC94B" stroke-width="2" stroke-linecap="round" stroke-linejoin="round"/>
<path d="M14.4156 9.23124C13.8932 8.06161 12.9613 7.12332 11.7952 6.59306C10.6291 6.0628 9.30942 5.97716 8.08459 6.35227C6.85977 6.72738 5.81435 7.53736 5.1452 8.62967C4.47605 9.72197 4.22935 11.0212 4.45155 12.2828C4.61909 13.2154 5.0304 14.0871 5.64373 14.8094C6.43279 14.2797 7.36212 13.9978 8.31248 14C8.84503 13.9972 9.37408 14.086 9.87655 14.2625C10.183 13.1254 10.754 12.077 11.5428 11.2026C12.3316 10.3282 13.316 9.65274 14.4156 9.23124Z" fill="#FFC800"/>
<path d="M9.625 16.1875C9.625 14.7165 10.0612 13.2785 10.8784 12.0554C11.6957 10.8324 12.8573 9.87908 14.2163 9.31615C15.5753 8.75322 17.0708 8.60594 18.5135 8.89291C19.9562 9.17989 21.2815 9.88824 22.3216 10.9284C23.3618 11.9685 24.0701 13.2938 24.3571 14.7365C24.6441 16.1793 24.4968 17.6747 23.9339 19.0337C23.3709 20.3927 22.4176 21.5543 21.1946 22.3716C19.9715 23.1888 18.5335 23.625 17.0625 23.625H8.3125C7.03615 23.625 5.81207 23.118 4.90955 22.2155C4.00703 21.3129 3.5 20.0889 3.5 18.8125C3.5 17.5361 4.00703 16.3121 4.90955 15.4096C5.81207 14.507 7.03615 14 8.3125 14C8.84504 13.9973 9.37409 14.0861 9.87656 14.2625" stroke="#0BC5EA" stroke-width="2" stroke-linecap="round" stroke-linejoin="round"/>
<path d="M8.71719 6.20158L8.25781 3.62033" stroke="#ECC94B" stroke-width="2" stroke-linecap="round" stroke-linejoin="round"/>
<path d="M5.32656 8.36719L3.17188 6.85782" stroke="#ECC94B" stroke-width="2" stroke-linecap="round" stroke-linejoin="round"/>
<path d="M4.45155 12.2828L1.8703 12.7422" stroke="#ECC94B" stroke-width="2" stroke-linecap="round" stroke-linejoin="round"/>
<path d="M12.6328 7.07656L14.1422 4.92188" stroke="#ECC94B" stroke-width="2" stroke-linecap="round" stroke-linejoin="round"/>
</svg>
