<svg width="82" height="82" viewBox="0 0 82 82" fill="none" xmlns="http://www.w3.org/2000/svg">
<path d="M57.1655 3.75152H52.4352L57.3545 9.08985V11.6312H47.2224V8.6555H52.1411L47.2224 3.31718V0.773254H57.1655V3.75152ZM45.2134 3.75152H40.483L45.4024 9.08985V11.6312H35.2696V8.6555H40.189L35.2696 3.31718V0.773254H45.2134V3.75152ZM33.3785 3.87324H28.274V8.53122H33.3785V11.6312H24.6455V0.773254H33.3785V3.87324Z" fill="white"/>
<path d="M17.6896 74.7648L12.5024 16.5877H69.4969L64.3053 74.7552L40.9648 81.2268L17.6896 74.7648Z" fill="#1572B6"/>
<path d="M41.0006 76.2805L59.86 71.0517L64.297 21.345H41.0006V76.2805Z" fill="#33A9DC"/>
<path d="M41 42.4222H50.4415L51.0943 35.1159H41V27.9806H58.892L58.721 29.8948L56.9676 49.5568H41V42.4222Z" fill="white"/>
<path d="M41.0429 60.9529L41.0115 60.9619L33.0652 58.8158L32.5566 53.1251H25.395L26.395 64.3284L41.0103 68.3854L41.0436 68.3758L41.0429 60.9529Z" fill="#EBEBEB"/>
<path d="M49.8355 49.2551L48.9758 58.8107L41.0179 60.9587V68.3823L55.6453 64.3284L55.753 63.1227L56.9945 49.2551H49.8355Z" fill="white"/>
<path d="M41.025 27.9806V35.1152H23.7903L23.6468 33.5117L23.322 29.8948L23.1509 27.9806H41.025ZM41 42.4228V49.5581H33.1543L33.0114 47.9546L32.686 44.337L32.5149 42.4228H41Z" fill="#EBEBEB"/>
</svg>
