<svg width="82" height="82" viewBox="0 0 82 82" fill="none" xmlns="http://www.w3.org/2000/svg">
<path d="M17.844 74.5393L12.6914 16.7479H69.3086L64.1509 74.5303L40.9654 80.9577L17.844 74.5393Z" fill="#E44D26"/>
<path d="M41 76.0448L59.7344 70.8506L64.1426 21.4738H41V76.0448Z" fill="#F16529"/>
<path d="M41 42.9078H31.6206L30.9736 35.6488H41V28.561H23.2271L23.3963 30.463L25.1388 49.995H41V42.9078ZM41 61.3148L40.9686 61.3232L33.0755 59.1912L32.5707 53.5389H25.4552L26.4482 64.6679L40.9673 68.6987L41 68.6891V61.3148Z" fill="#EBEBEB"/>
<path d="M17.9593 1.0423H21.5609V4.60161H24.8562V1.0423H28.4585V11.8189H24.8562V8.21025H21.5615V11.8189H17.9593V1.0423ZM33.1946 4.61634H30.0235V1.0423H39.9692V4.61634H36.7969V11.8189H33.1946V4.61634ZM41.5477 1.0423H45.3031L47.6138 4.82903L49.922 1.0423H53.6792V11.8189H50.0911V6.47736L47.6138 10.3089H47.551L45.0718 6.47736V11.8189H41.5471V1.0423H41.5477ZM55.4724 1.0423H59.0752V8.25702H64.1406V11.8195H55.4724V1.0423Z" fill="white"/>
<path d="M40.9757 42.9078V49.995H49.7035L48.881 59.1873L40.9757 61.3213V68.6949L55.5063 64.6679L55.6127 63.4699L57.2783 44.8104L57.4513 42.9078H55.5409H40.9757ZM40.9757 28.561V35.6488H58.0964L58.2379 34.0556L58.5615 30.463L58.7312 28.561H40.9757Z" fill="white"/>
</svg>
