<svg width="101" height="60" viewBox="0 0 101 60" fill="none" xmlns="http://www.w3.org/2000/svg">
<path d="M50.0122 0C36.6756 0 28.3402 6.6662 25.0061 19.9986C30.0073 13.3324 35.842 10.8339 42.5103 12.4989C46.3154 13.4491 49.0348 16.2102 52.046 19.2651C56.9472 24.2392 62.6215 29.999 75.0182 29.999C88.3548 29.999 96.6902 23.3328 100.024 9.99826C95.0231 16.6645 89.1883 19.1651 82.5201 17.5001C78.717 16.5499 75.9976 13.7888 72.9865 10.7339C68.0832 5.75765 62.4068 0 50.0122 0ZM25.0061 29.999C11.6695 29.999 3.33414 36.6652 0 49.9997C5.00122 43.3335 10.836 40.8328 17.5043 42.4999C21.3073 43.4522 24.0267 46.2112 27.0378 49.2641C31.9411 54.2403 37.6175 60 50.0122 60C63.3487 60 71.6841 53.3338 75.0182 39.9993C70.017 46.6655 64.1823 49.1661 57.514 47.499C53.7089 46.5488 50.9895 43.7877 47.9783 40.7349C43.0771 35.7587 37.4028 29.999 25.0061 29.999Z" fill="#00ACC1"/>
</svg>
